<svg width="103" height="103" viewBox="0 0 103 103" fill="none" xmlns="http://www.w3.org/2000/svg">
<g filter="url(#filter0_d_139_109)">
<rect x="4" width="95" height="95" rx="47.5" fill="white"></rect>
<rect x="4.5" y="0.5" width="94" height="94" rx="47" stroke="#D1D1D1"></rect>
<rect x="41.8" y="37.8" width="20.4" height="20.4" rx="3.4" stroke="black" stroke-width="3.6"></rect>
<rect x="47.5" y="43.5" width="9" height="9" rx="1.6" stroke="black" stroke-width="3.2"></rect>
<path d="M45.5 28.5L45.5 34" stroke="black" stroke-width="3.6" stroke-linecap="round"></path>
<path d="M45.5 62L45.5 67.5" stroke="black" stroke-width="3.6" stroke-linecap="round"></path>
<path d="M52 28.5L52 34" stroke="black" stroke-width="3.6" stroke-linecap="round"></path>
<path d="M52 62L52 67.5" stroke="black" stroke-width="3.6" stroke-linecap="round"></path>
<path d="M58.5 28.5L58.5 34" stroke="black" stroke-width="3.6" stroke-linecap="round"></path>
<path d="M58.5 62L58.5 67.5" stroke="black" stroke-width="3.6" stroke-linecap="round"></path>
<path d="M28.5 41.5L34 41.5" stroke="black" stroke-width="3.6" stroke-linecap="round"></path>
<path d="M66 41.5L71.5 41.5" stroke="black" stroke-width="3.6" stroke-linecap="round"></path>
<path d="M28.5 48L34 48" stroke="black" stroke-width="3.6" stroke-linecap="round"></path>
<path d="M66 48L71.5 48" stroke="black" stroke-width="3.6" stroke-linecap="round"></path>
<path d="M28.5 54.5L34 54.5" stroke="black" stroke-width="3.6" stroke-linecap="round"></path>
<path d="M66 54.5L71.5 54.5" stroke="black" stroke-width="3.6" stroke-linecap="round"></path>
</g>
<defs>
<filter id="filter0_d_139_109" x="0" y="0" width="103" height="103" filterUnits="userSpaceOnUse" color-interpolation-filters="sRGB">
<feFlood flood-opacity="0" result="BackgroundImageFix"></feFlood>
<feColorMatrix in="SourceAlpha" type="matrix" values="0 0 0 0 0 0 0 0 0 0 0 0 0 0 0 0 0 0 127 0" result="hardAlpha"></feColorMatrix>
<feOffset dy="4"></feOffset>
<feGaussianBlur stdDeviation="2"></feGaussianBlur>
<feComposite in2="hardAlpha" operator="out"></feComposite>
<feColorMatrix type="matrix" values="0 0 0 0 0 0 0 0 0 0 0 0 0 0 0 0 0 0 0.25 0"></feColorMatrix>
<feBlend mode="normal" in2="BackgroundImageFix" result="effect1_dropShadow_139_109"></feBlend>
<feBlend mode="normal" in="SourceGraphic" in2="effect1_dropShadow_139_109" result="shape"></feBlend>
</filter>
</defs>
</svg>