<svg width="40" height="19" viewBox="0 0 40 19" fill="none" xmlns="http://www.w3.org/2000/svg">
<rect x="0.25" y="0.25" width="39.5" height="18.5" rx="9.25" fill="white"></rect>
<rect x="0.25" y="0.25" width="39.5" height="18.5" rx="9.25" stroke="black" stroke-width="0.5"></rect>
<path d="M8.31 13.5V6.19H11.22C12.66 6.19 13.54 6.94 13.54 8.16C13.54 8.97 13.18 9.55 12.49 9.84C13.26 10.09 13.65 10.67 13.65 11.52C13.65 12.77 12.78 13.5 11.27 13.5H8.31ZM11.11 7.32H9.59V9.31H11.14C11.84 9.31 12.23 8.94 12.23 8.29C12.23 7.66 11.83 7.32 11.11 7.32ZM11.22 10.39H9.59V12.37H11.22C11.94 12.37 12.34 12.02 12.34 11.36C12.34 10.74 11.93 10.39 11.22 10.39ZM19.3637 13.5H14.8237V6.19H19.3637V7.37H16.1037V9.25H19.0237V10.38H16.1037V12.32H19.3637V13.5ZM20.1114 7.37V6.19H25.6714V7.37H23.5314V13.5H22.2514V7.37H20.1114ZM26.6255 13.5H25.2955L27.9355 6.19H29.2455L31.8855 13.5H30.5355L29.9455 11.81H27.2155L26.6255 13.5ZM28.4255 8.37L27.5955 10.73H29.5755L28.7355 8.37C28.6755 8.18 28.6055 7.96 28.5855 7.81C28.5555 7.95 28.4955 8.17 28.4255 8.37Z" fill="black"></path>
</svg>