<svg width="202" height="61" viewBox="0 0 202 61" fill="none" xmlns="http://www.w3.org/2000/svg" xmlns:xlink="http://www.w3.org/1999/xlink">
<g filter="url(#filter0_d_178_280)">
<rect x="4" width="194" height="53" rx="15" fill="white"></rect>
<rect x="4.5" y="0.5" width="193" height="52" rx="14.5" stroke="#D9D9D9"></rect>
<rect x="16" y="13" width="28.1111" height="28.1111" rx="14.0556" fill="url(#pattern0_178_280)"></rect>
<circle cx="41.6668" cy="37.4444" r="6.83333" fill="#8FEA82" stroke="#059A4F"></circle>
<rect x="53" y="29" width="129" height="5" rx="2.5" fill="#D9D9D9"></rect>
<rect x="53" y="37" width="109" height="5" rx="2.5" fill="#D9D9D9"></rect>
<path d="M53.2 25.29V24.27H53.93C54.41 24.27 54.71 24.16 54.92 23.58L55.06 23.21L53.07 18.06H54.36L55.63 21.66L56.97 18.06H58.23L55.81 24.1C55.44 25.02 54.92 25.4 54.11 25.4C53.77 25.4 53.47 25.36 53.2 25.29ZM58.3084 20.52C58.3084 18.98 59.4184 17.92 60.9484 17.92C62.4784 17.92 63.5884 18.98 63.5884 20.52C63.5884 22.06 62.4784 23.12 60.9484 23.12C59.4184 23.12 58.3084 22.06 58.3084 20.52ZM59.5284 20.52C59.5284 21.42 60.1084 22.03 60.9484 22.03C61.7884 22.03 62.3684 21.42 62.3684 20.52C62.3684 19.62 61.7884 19.01 60.9484 19.01C60.1084 19.01 59.5284 19.62 59.5284 20.52ZM67.6882 18.06H68.9082V23H67.7782L67.6882 22.34C67.3882 22.81 66.7482 23.13 66.0882 23.13C64.9482 23.13 64.2782 22.36 64.2782 21.15V18.06H65.4982V20.72C65.4982 21.66 65.8682 22.04 66.5482 22.04C67.3182 22.04 67.6882 21.59 67.6882 20.65V18.06ZM71.3155 16.53C71.3155 17.37 70.7555 18.02 69.9555 18.12V17.64C70.3855 17.56 70.6955 17.29 70.6955 16.94C70.6155 16.97 70.5255 16.99 70.4155 16.99C70.0555 16.99 69.7655 16.74 69.7655 16.3C69.7655 15.86 70.0655 15.55 70.5055 15.55C70.9755 15.55 71.3155 15.93 71.3155 16.53ZM73.878 23L71.918 18.06H73.218L74.078 20.33C74.288 20.92 74.458 21.43 74.518 21.7C74.588 21.39 74.768 20.87 74.978 20.33L75.878 18.06H77.138L75.078 23H73.878ZM79.7052 23.13C78.2352 23.13 77.2052 22.06 77.2052 20.53C77.2052 18.98 78.2152 17.91 79.6652 17.91C81.1452 17.91 82.0852 18.9 82.0852 20.44V20.81L78.3652 20.82C78.4552 21.69 78.9152 22.13 79.7252 22.13C80.3952 22.13 80.8352 21.87 80.9752 21.4H82.1052C81.8952 22.48 80.9952 23.13 79.7052 23.13ZM79.6752 18.91C78.9552 18.91 78.5152 19.3 78.3952 20.04H80.8752C80.8752 19.36 80.4052 18.91 79.6752 18.91ZM86.687 23H85.557V15.56H86.777V18.78C87.097 18.23 87.757 17.9 88.507 17.9C89.917 17.9 90.777 19 90.777 20.56C90.777 22.08 89.847 23.13 88.427 23.13C87.687 23.13 87.057 22.8 86.767 22.23L86.687 23ZM86.787 20.51C86.787 21.4 87.337 22.01 88.177 22.01C89.037 22.01 89.547 21.39 89.547 20.51C89.547 19.63 89.037 19 88.177 19C87.337 19 86.787 19.62 86.787 20.51ZM93.8584 23.13C92.3884 23.13 91.3584 22.06 91.3584 20.53C91.3584 18.98 92.3684 17.91 93.8184 17.91C95.2984 17.91 96.2384 18.9 96.2384 20.44V20.81L92.5184 20.82C92.6084 21.69 93.0684 22.13 93.8784 22.13C94.5484 22.13 94.9884 21.87 95.1284 21.4H96.2584C96.0484 22.48 95.1484 23.13 93.8584 23.13ZM93.8284 18.91C93.1084 18.91 92.6684 19.3 92.5484 20.04H95.0284C95.0284 19.36 94.5584 18.91 93.8284 18.91ZM99.3248 23.13C97.8548 23.13 96.8248 22.06 96.8248 20.53C96.8248 18.98 97.8348 17.91 99.2848 17.91C100.765 17.91 101.705 18.9 101.705 20.44V20.81L97.9848 20.82C98.0748 21.69 98.5348 22.13 99.3448 22.13C100.015 22.13 100.455 21.87 100.595 21.4H101.725C101.515 22.48 100.615 23.13 99.3248 23.13ZM99.2948 18.91C98.5748 18.91 98.1348 19.3 98.0148 20.04H100.495C100.495 19.36 100.025 18.91 99.2948 18.91ZM103.801 23H102.581V18.06H103.711L103.811 18.7C104.121 18.2 104.721 17.91 105.391 17.91C106.631 17.91 107.271 18.68 107.271 19.96V23H106.051V20.25C106.051 19.42 105.641 19.02 105.011 19.02C104.261 19.02 103.801 19.54 103.801 20.34V23ZM110.585 21.5H111.745C111.755 21.93 112.075 22.2 112.635 22.2C113.205 22.2 113.515 21.97 113.515 21.61C113.515 21.36 113.385 21.18 112.945 21.08L112.055 20.87C111.165 20.67 110.735 20.25 110.735 19.46C110.735 18.49 111.555 17.91 112.695 17.91C113.805 17.91 114.555 18.55 114.565 19.51H113.405C113.395 19.09 113.115 18.82 112.645 18.82C112.165 18.82 111.885 19.04 111.885 19.41C111.885 19.69 112.105 19.87 112.525 19.97L113.415 20.18C114.245 20.37 114.665 20.75 114.665 21.51C114.665 22.51 113.815 23.13 112.595 23.13C111.365 23.13 110.585 22.47 110.585 21.5ZM116.714 23H115.494V15.56H116.724V18.7C117.034 18.22 117.614 17.91 118.324 17.91C119.544 17.91 120.184 18.68 120.184 19.96V23H118.964V20.25C118.964 19.42 118.554 19.02 117.934 19.02C117.164 19.02 116.714 19.56 116.714 20.3V23ZM120.993 20.52C120.993 18.98 122.103 17.92 123.633 17.92C125.163 17.92 126.273 18.98 126.273 20.52C126.273 22.06 125.163 23.12 123.633 23.12C122.103 23.12 120.993 22.06 120.993 20.52ZM122.213 20.52C122.213 21.42 122.793 22.03 123.633 22.03C124.473 22.03 125.053 21.42 125.053 20.52C125.053 19.62 124.473 19.01 123.633 19.01C122.793 19.01 122.213 19.62 122.213 20.52ZM130.24 18.04V19.17H129.79C128.91 19.17 128.36 19.64 128.36 20.6V23H127.14V18.07H128.29L128.36 18.79C128.57 18.3 129.04 17.97 129.7 17.97C129.87 17.97 130.04 17.99 130.24 18.04ZM132.841 23H131.621V19.08H130.671V18.06H131.621V16.52H132.841V18.06H133.801V19.08H132.841V23ZM135.689 23H134.479V15.56H135.689V23ZM137.479 17.07C137.059 17.07 136.729 16.74 136.729 16.33C136.729 15.92 137.059 15.6 137.479 15.6C137.879 15.6 138.209 15.92 138.209 16.33C138.209 16.74 137.879 17.07 137.479 17.07ZM136.869 23V18.06H138.089V23H136.869ZM138.87 21.5H140.03C140.04 21.93 140.36 22.2 140.92 22.2C141.49 22.2 141.8 21.97 141.8 21.61C141.8 21.36 141.67 21.18 141.23 21.08L140.34 20.87C139.45 20.67 139.02 20.25 139.02 19.46C139.02 18.49 139.84 17.91 140.98 17.91C142.09 17.91 142.84 18.55 142.85 19.51H141.69C141.68 19.09 141.4 18.82 140.93 18.82C140.45 18.82 140.17 19.04 140.17 19.41C140.17 19.69 140.39 19.87 140.81 19.97L141.7 20.18C142.53 20.37 142.95 20.75 142.95 21.51C142.95 22.51 142.1 23.13 140.88 23.13C139.65 23.13 138.87 22.47 138.87 21.5ZM145.458 23H144.238V19.08H143.288V18.06H144.238V16.52H145.458V18.06H146.418V19.08H145.458V23ZM149.238 23.13C147.768 23.13 146.738 22.06 146.738 20.53C146.738 18.98 147.748 17.91 149.198 17.91C150.678 17.91 151.618 18.9 151.618 20.44V20.81L147.898 20.82C147.988 21.69 148.448 22.13 149.258 22.13C149.928 22.13 150.368 21.87 150.508 21.4H151.638C151.428 22.48 150.528 23.13 149.238 23.13ZM149.208 18.91C148.488 18.91 148.048 19.3 147.928 20.04H150.408C150.408 19.36 149.938 18.91 149.208 18.91ZM154.524 23.13C153.094 23.13 152.204 22.08 152.204 20.55C152.204 19.01 153.104 17.91 154.594 17.91C155.284 17.91 155.894 18.2 156.204 18.69V15.56H157.414V23H156.294L156.214 22.23C155.914 22.8 155.274 23.13 154.524 23.13ZM154.794 22.01C155.644 22.01 156.194 21.4 156.194 20.51C156.194 19.62 155.644 19 154.794 19C153.944 19 153.424 19.63 153.424 20.51C153.424 21.39 153.944 22.01 154.794 22.01ZM160.036 20.81H159.056C158.926 20.01 158.836 18.67 158.836 17.37V15.69H160.276V17.37C160.276 18.7 160.176 20.04 160.036 20.81ZM159.556 23.13C159.106 23.13 158.736 22.77 158.736 22.34C158.736 21.9 159.106 21.54 159.556 21.54C159.986 21.54 160.356 21.9 160.356 22.34C160.356 22.77 159.986 23.13 159.556 23.13Z" fill="black"></path>
</g>
<defs>
<filter id="filter0_d_178_280" x="0" y="0" width="202" height="61" filterUnits="userSpaceOnUse" color-interpolation-filters="sRGB">
<feFlood flood-opacity="0" result="BackgroundImageFix"></feFlood>
<feColorMatrix in="SourceAlpha" type="matrix" values="0 0 0 0 0 0 0 0 0 0 0 0 0 0 0 0 0 0 127 0" result="hardAlpha"></feColorMatrix>
<feOffset dy="4"></feOffset>
<feGaussianBlur stdDeviation="2"></feGaussianBlur>
<feComposite in2="hardAlpha" operator="out"></feComposite>
<feColorMatrix type="matrix" values="0 0 0 0 0 0 0 0 0 0 0 0 0 0 0 0 0 0 0.25 0"></feColorMatrix>
<feBlend mode="normal" in2="BackgroundImageFix" result="effect1_dropShadow_178_280"></feBlend>
<feBlend mode="normal" in="SourceGraphic" in2="effect1_dropShadow_178_280" result="shape"></feBlend>
</filter>
<pattern id="pattern0_178_280" patternContentUnits="objectBoundingBox" width="1" height="1">
<use xlink:href="#image0_178_280" transform="scale(0.002)"></use>
</pattern>
<image id="image0_178_280" width="500" height="500" preserveAspectRatio="none"></image>
</defs>
</svg>